<svg version="1.1" xmlns="http://www.w3.org/2000/svg" width="895" height="859">
    <path
        d="M -16.718 -6.685 C -13.976 -6.718 -8.276 -4.685 -4.713 -3.665 C -0.986 -2.599 45.157 14.32 46.383 15.219 C 47.251 16.209 50.35 28.673 52.348 34.711 C 67.181 79.526 113.553 250.973 120.773 273.628 C 121.748 276.683 124.659 290.778 124.641 291.719 C 119.707 285.251 122.148 291.854 121.329 291.892 C 65.274 294.95 -2.031 316.023 -33.617 325.101 C -34.65 325.398 -34.653 325.387 -35.71 325.679 C -87.666 340.067 -138.493 359.079 -186.984 382.667 C -187.629 382.98 -188.273 383.293 -188.937 383.616 C -192.14 385.174 -195.339 386.739 -198.532 388.317 C -204.81 391.39 -210.916 394.1 -217.617 396.101 C -215.539 388.087 -213.078 380.255 -210.406 372.421 C -210.002 371.227 -92.568 26.997 -91.84 24.827 C -91.264 23.011 -91.264 23.011 -90.676 21.158 C -87.59 16.576 -30.091 -2.69 -29.163 -3.002 C -27.396 -3.625 -19.514 -6.651 -16.718 -6.685 Z"
        transform="translate(252.616943359375,387.899169921875)" fill="#104AE1"></path>
    <path
        d="M 0 0 C 3.581 0 7.161 -0.007 10.742 -0.021 C 32.764 -0.103 54.546 0.316 76.501 2.185 C 78.334 2.333 80.167 2.481 82 2.628 C 86.775 3.022 91.545 3.465 96.314 3.935 C 97.157 4.018 98 4.101 98.869 4.186 C 156.707 9.931 216.329 20.084 270.564 41.56 C 272.19 42.204 272.19 42.204 273.849 42.861 C 281.373 45.928 281.373 45.928 282.501 48.185 C 274.04 47.606 265.655 46.777 257.248 45.662 C 254.922 45.361 252.596 45.06 250.271 44.76 C 249.072 44.605 247.874 44.449 246.64 44.289 C 223.621 41.312 200.655 38.797 177.501 37.185 C 176.325 37.096 175.148 37.007 173.936 36.915 C 134.274 33.931 94.275 34.756 54.564 36.06 C 53.34 36.1 52.116 36.139 50.855 36.179 C 21.802 37.13 -7.051 39.112 -35.936 42.373 C -37.318 42.527 -38.699 42.681 -40.081 42.835 C -122.729 52.037 -204.916 63.98 -286.499 80.185 C -287.245 80.334 -287.992 80.482 -288.761 80.635 C -298.68 82.609 -308.584 84.651 -318.477 86.755 C -320.449 87.175 -322.422 87.592 -324.394 88.009 C -381.643 100.193 -438.515 114.642 -494.726 130.935 C -502.092 133.07 -584.715 157.153 -586.14 157.584 C -588.499 158.185 -588.499 158.185 -591.499 158.185 C -591.499 157.525 -591.499 156.865 -591.499 156.185 C -556.855 137.226 -521.801 119.728 -485.499 104.185 C -484.305 103.674 -483.112 103.162 -481.882 102.635 C -434.616 82.467 -385.897 65.593 -336.692 50.844 C -334.74 50.258 -332.789 49.665 -330.839 49.072 C -288.45 36.196 -245.017 26.36 -201.499 18.185 C -200.61 18.018 -199.721 17.85 -198.806 17.677 C -161.723 10.71 -124.346 5.981 -86.749 2.873 C -85.777 2.791 -84.806 2.71 -83.806 2.626 C -55.895 0.322 -27.987 -0.003 0 0 Z"
        transform="translate(591.49853515625,700.814697265625)" style="fill: rgb(16, 74, 225);"></path>
    <path
        d="M 0 0 C 0.89 0.284 1.781 0.569 2.698 0.862 C 4.06 1.316 4.06 1.316 5.45 1.78 C 6.689 2.191 6.689 2.191 7.953 2.611 C 10.522 3.478 13.084 4.364 15.645 5.256 C 16.588 5.583 17.532 5.91 18.503 6.247 C 21.528 7.297 24.552 8.35 27.575 9.405 C 28.601 9.762 29.626 10.119 30.683 10.487 C 42.579 14.632 54.466 18.795 66.262 23.217 C 67.219 23.576 68.177 23.934 69.163 24.304 C 75.312 26.642 75.312 26.642 76.45 27.78 C 76.755 30.664 82.733 125.777 82.45 135.78 C 75.94 133.879 7.046 108.637 5.891 108.245 C 4.929 107.911 3.967 107.577 2.975 107.233 C -0.176 106.668 -0.729 107.336 -3.55 108.78 C -6.26 109.744 -8.97 110.674 -11.699 111.577 C -12.518 111.851 -87.436 138.78 -88.55 138.78 C -88.706 126.244 -88.233 111.811 -87.492 99.299 C -87.382 97.387 -87.272 95.476 -87.163 93.564 C -86.934 89.594 -86.703 85.625 -86.469 81.656 C -86.17 76.579 -85.878 71.5 -85.588 66.422 C -85.363 62.49 -85.135 58.558 -84.906 54.627 C -84.797 52.754 -84.689 50.88 -84.582 49.007 C -84.432 46.397 -83.471 30.579 -83.431 29.446 C -82.55 26.78 -82.55 26.78 -79.681 25.062 C -78.427 24.592 -31.9 8.258 -28.41 7.04 C -4.277 -1.381 -4.277 -1.381 0 0 Z"
        transform="translate(233.55029296875,267.22021484375)" fill="#4D8708"></path>
    <path
        d="M 228.5 -0.438 C 231.517 0.091 230.176 -0.428 232 2 C 232.669 4.886 265.568 195.9 267.343 202.833 C 270.854 216.548 273.395 226.331 284 236 C 285.428 237.724 310.474 268.552 311.969 270.293 C 315.503 274.469 316.836 277.462 316.375 283.008 C 316 285 316 285 315.063 287.625 C 311.615 289.923 307.935 288.716 304 288 C 300.872 287.165 297.848 286.109 294.805 285.008 C 293.946 284.706 293.088 284.403 292.203 284.092 C 290.371 283.445 261.876 273.36 253.835 270.294 C 251.023 269.222 248.204 268.168 245.385 267.115 C 243.487 266.394 241.605 265.642 239.72 264.887 C 231.825 261.93 227.673 261.75 220 265 C 218.047 265.684 165.648 284.162 163.225 285.016 C 156.979 287.218 146.103 289.602 145 289 C 144.085 288.772 142.938 287.625 142 285 C 141.279 283.37 141.511 276.077 144.563 271.754 C 145.686 270.339 166.676 244.695 170.556 240.195 C 180.523 229.753 180.523 229.753 185.91 216.973 C 186.062 215.939 222.252 12.17 222.564 6.088 C 223.326 2.441 224.78 0.214 228.5 -0.438 Z"
        fill="#FDDF07"></path>
</svg>